<?xml version="1.0" standalone="no"?>
<!DOCTYPE svg PUBLIC "-//W3C//DTD SVG 20010904//EN"
 "http://www.w3.org/TR/2001/REC-SVG-20010904/DTD/svg10.dtd">
<svg version="1.0" xmlns="http://www.w3.org/2000/svg"
 width="2000.000000pt" height="736.000000pt" viewBox="0 0 2000.000000 736.000000"
 preserveAspectRatio="xMidYMid meet">
<metadata>
Created by potrace 1.13, written by Peter Selinger 2001-2015
</metadata>
<g transform="translate(0.000000,736.000000) scale(0.100000,-0.100000)"
fill="#000000" stroke="none">
<path d="M10939 7267 l-156 -82 -513 -590 c-283 -324 -592 -679 -687 -788
l-174 -198 48 -57 c133 -155 192 -227 189 -229 -2 -2 -61 -35 -132 -73 l-128
-69 -71 63 c-38 34 -292 259 -563 500 l-492 437 -166 -88 c-164 -87 -165 -88
-197 -146 l-32 -58 -5 129 -5 129 -430 -137 c-1481 -473 -1383 -439 -1556
-531 -84 -45 -158 -85 -163 -90 -10 -9 33 -959 44 -972 4 -5 68 7 143 27 74
20 142 36 150 36 12 0 17 -15 22 -57 3 -32 8 -78 11 -104 l5 -45 -188 0 c-209
1 -325 -16 -505 -75 -114 -37 -289 -121 -382 -184 -37 -25 -70 -44 -72 -42 -3
2 3 48 11 102 21 128 21 356 0 477 -32 182 -110 369 -229 543 -77 112 -235
278 -345 360 -116 88 -317 205 -436 255 -250 106 -680 170 -1056 156 -605 -21
-1221 -189 -1859 -507 -210 -105 -295 -154 -550 -315 -182 -116 -204 -133
-333 -262 l-137 -137 445 -750 c245 -413 449 -751 453 -753 4 -1 79 29 167 67
88 39 163 67 167 63 3 -4 240 -538 526 -1187 286 -649 606 -1376 711 -1615
106 -239 196 -439 201 -443 4 -5 311 89 681 208 l674 217 173 114 c134 89 172
119 168 132 -8 26 -264 1012 -272 1047 -5 23 2 16 30 -29 106 -173 261 -341
393 -429 154 -102 329 -172 503 -203 128 -22 396 -15 521 15 251 58 467 164
699 344 l85 66 6 -37 c4 -20 15 -131 24 -247 10 -115 19 -211 20 -213 2 -2
409 57 1054 154 l235 35 168 88 169 88 -1 406 c0 232 3 407 8 407 5 0 454
-221 998 -491 1126 -559 1355 -672 1369 -671 6 0 80 38 165 85 l155 85 3 561
2 561 28 0 c36 0 209 43 297 73 102 36 226 92 338 154 54 30 100 53 102 51 1
-1 -19 -133 -46 -293 -27 -159 -48 -296 -46 -304 1 -11 168 -41 707 -127 388
-63 716 -113 730 -114 14 0 83 32 153 70 71 39 132 70 137 70 4 0 47 -72 95
-160 47 -88 88 -160 91 -160 2 0 62 31 131 70 70 38 128 68 129 67 1 -1 14
-99 28 -217 15 -117 28 -215 29 -215 1 -1 124 -22 272 -48 326 -57 1201 -212
1305 -231 l74 -14 163 89 c121 67 163 95 163 109 0 18 -44 307 -56 361 l-5 26
111 18 c132 20 218 43 318 84 39 16 72 27 72 23 0 -4 -14 -122 -30 -262 -16
-140 -30 -269 -30 -285 l0 -30 542 -77 c297 -43 543 -80 546 -83 3 -3 8 -104
10 -225 l5 -219 61 -20 c115 -37 951 -302 1016 -322 l65 -20 167 88 168 88 66
200 c36 110 364 1101 730 2201 533 1606 664 2011 664 2053 0 28 -2 51 -5 51
-2 0 -228 55 -502 121 -274 67 -614 149 -755 184 l-258 62 -111 -60 c-62 -32
-118 -61 -124 -64 -9 -3 -18 25 -31 91 -12 67 -22 97 -33 101 -17 4 -255 58
-541 120 -91 20 -399 88 -685 151 -286 63 -538 117 -560 120 -36 5 -56 -4
-198 -83 l-159 -88 1 -310 c1 -170 4 -378 7 -461 l7 -151 -114 -7 c-271 -16
-545 -106 -772 -252 -45 -29 -69 -40 -72 -32 -2 7 -63 389 -135 848 -72 459
-134 845 -137 858 l-5 22 -600 0 -600 0 -169 -91 c-93 -50 -169 -95 -169 -100
0 -5 -217 -10 -497 -11 l-498 -3 -144 -79 c-79 -44 -151 -87 -161 -95 -13 -12
-26 -66 -50 -216 -18 -110 -34 -202 -35 -203 -2 -2 -34 22 -71 53 -251 213
-603 354 -933 372 -87 5 -101 8 -87 19 10 7 254 139 542 294 l524 282 -17 28
c-221 340 -732 1089 -743 1089 -8 0 -85 -37 -171 -82z m326 -687 l195 -265
-565 -282 c-312 -156 -570 -283 -574 -283 -13 0 -83 111 -78 123 10 25 810
978 819 975 5 -2 96 -122 203 -268z m3282 -913 c4 -5 253 -1625 253 -1648 0
-10 -21 -45 -47 -77 -136 -167 -256 -402 -309 -604 -47 -185 -60 -435 -29
-596 48 -248 169 -484 334 -652 86 -87 212 -180 309 -227 42 -20 78 -38 80
-39 7 -4 34 -205 29 -210 -3 -4 -52 1 -109 9 -204 30 -793 120 -795 122 -2 1
-23 134 -48 296 -58 379 -195 1288 -196 1297 0 8 -144 -354 -264 -666 -78
-202 -79 -203 -93 -175 -9 15 -94 197 -189 403 -288 621 -307 660 -313 660 -4
0 -15 -51 -25 -112 -9 -62 -54 -346 -100 -630 -45 -285 -83 -520 -86 -522 -2
-2 -38 2 -79 9 -41 8 -221 39 -400 70 -179 30 -337 58 -351 61 l-26 5 61 359
61 360 184 184 c101 101 182 189 180 194 -2 5 -60 59 -129 121 -69 62 -126
116 -128 121 -3 7 228 1402 271 1635 l12 70 432 3 432 2 10 -52 c19 -96 201
-1092 201 -1102 0 -5 2 -7 5 -4 5 5 15 60 155 848 44 250 82 464 85 475 4 20
11 20 312 17 169 -2 308 -4 310 -5z m-5465 -687 l98 -95 -52 -55 c-68 -73
-903 -955 -992 -1047 -38 -40 -67 -75 -64 -78 3 -3 175 -73 384 -156 208 -82
442 -175 519 -205 l140 -56 35 -61 c220 -383 675 -666 1163 -723 l57 -7 0
-378 0 -379 -1340 670 -1340 670 -2 -702 -3 -703 -55 -7 c-30 -4 -183 -25
-340 -47 -158 -22 -287 -36 -290 -31 -3 5 -16 134 -28 287 l-23 279 60 124
c183 379 219 762 106 1120 -53 166 -148 335 -259 456 l-55 61 -50 582 c-27
320 -51 585 -54 588 -4 3 -72 -12 -152 -32 -80 -21 -147 -36 -150 -33 -3 3 -8
70 -12 149 l-6 144 552 164 c303 90 554 161 557 158 3 -2 16 -184 29 -403 30
-499 45 -717 49 -721 1 -2 172 234 379 524 206 291 390 547 407 571 l31 43
302 -288 c166 -158 346 -331 399 -383z m-5687 501 c253 -39 400 -85 550 -173
154 -90 244 -157 335 -248 173 -173 278 -365 315 -579 99 -561 -321 -1289
-1007 -1748 -54 -36 -98 -70 -98 -77 0 -6 99 -391 220 -855 121 -464 223 -853
226 -866 4 -18 1 -23 -18 -27 -13 -3 -178 -55 -367 -117 -190 -61 -348 -108
-351 -104 -4 5 -167 366 -363 803 -895 2002 -1147 2563 -1151 2567 -2 2 -86
-37 -186 -87 -101 -50 -187 -87 -191 -83 -6 7 -312 521 -497 835 l-51 87 37
22 c599 355 1174 569 1742 648 207 29 200 29 470 26 191 -2 276 -7 385 -24z
m7643 -210 c266 -57 487 -177 667 -362 l77 -79 -90 -97 c-50 -54 -299 -321
-555 -593 -403 -429 -462 -496 -445 -503 26 -10 171 9 273 34 165 42 287 114
433 254 l101 96 285 -256 c158 -142 286 -261 286 -265 0 -9 -106 -109 -192
-181 -252 -210 -642 -383 -1032 -456 -131 -25 -468 -25 -589 0 -448 91 -787
371 -910 752 -61 186 -78 437 -43 618 85 442 395 786 866 960 104 38 276 81
385 96 110 15 375 6 483 -18z m6262 -137 c316 -64 578 -119 582 -123 4 -3 28
-103 52 -221 52 -248 74 -354 226 -1070 61 -289 114 -540 117 -558 3 -18 7
-31 9 -30 1 2 88 359 193 793 240 992 213 891 242 887 22 -2 386 -82 722 -157
82 -18 151 -36 154 -38 3 -3 -49 -169 -115 -369 -66 -200 -281 -849 -477
-1443 -603 -1826 -676 -2045 -688 -2045 -14 0 -154 41 -433 125 l-192 57 -6
237 c-13 441 -46 1884 -46 1974 0 50 -2 88 -5 86 -2 -3 -70 -376 -150 -830
-80 -453 -150 -848 -156 -878 l-11 -53 -36 5 c-21 3 -175 27 -344 53 l-308 49
0 35 c1 19 11 136 23 260 l23 225 83 80 c247 238 410 529 483 862 29 134 32
408 5 533 -52 241 -152 438 -308 605 l-61 65 26 282 c15 156 29 292 31 304 4
18 -7 23 -125 54 l-130 34 0 41 c0 23 3 97 7 163 5 102 9 122 22 122 9 0 275
-52 591 -116z m-1020 -897 c339 -87 580 -325 664 -658 96 -377 -31 -800 -338
-1125 -192 -204 -420 -337 -696 -405 -80 -19 -120 -23 -255 -23 -139 1 -173 4
-255 26 -287 77 -505 260 -617 519 -63 146 -77 215 -76 399 0 182 17 271 83
436 118 296 384 580 684 731 91 46 252 98 346 112 41 6 86 13 100 15 64 12
268 -4 360 -27z m-7311 -496 c6 -30 10 -56 8 -57 -1 -2 -87 29 -191 69 l-188
72 174 169 173 170 6 -185 c4 -101 12 -208 18 -238z m-2919 254 c216 -32 391
-117 539 -259 128 -124 214 -273 262 -459 31 -116 37 -321 15 -453 -43 -249
-166 -505 -340 -702 -434 -493 -1113 -634 -1580 -329 -193 127 -328 315 -402
562 -25 82 -28 105 -28 265 -1 138 3 192 18 255 28 119 63 220 113 320 272
547 860 883 1403 800z"/>
<path d="M3221 4455 c-87 -20 -156 -43 -216 -73 -27 -13 -51 -25 -53 -27 -6
-6 380 -1271 393 -1283 15 -15 310 213 398 307 155 169 217 317 217 522 0 183
-45 303 -149 402 -114 109 -234 156 -411 163 -78 2 -135 -1 -179 -11z m189
-376 c19 -6 47 -20 61 -30 14 -10 29 -15 33 -11 4 4 6 2 4 -4 -1 -6 12 -28 30
-48 18 -19 33 -39 35 -43 1 -5 6 -7 11 -5 5 2 5 -3 -1 -10 -7 -9 -8 -33 -2
-73 5 -33 6 -90 3 -127 -3 -37 -6 -71 -6 -75 0 -5 -4 -15 -10 -23 -6 -8 4 0
21 18 17 18 29 38 25 44 -4 6 -3 8 3 5 13 -8 26 20 16 35 -3 7 -1 8 5 4 6 -4
18 5 26 21 28 52 16 3 -13 -56 -32 -63 -136 -191 -155 -191 -11 0 -186 545
-186 578 0 16 43 12 100 -9z"/>
<path d="M10441 4779 c-239 -42 -449 -242 -505 -479 -33 -139 -11 -317 55
-440 41 -76 108 -159 160 -196 l44 -31 417 471 417 471 -54 51 c-63 61 -125
97 -223 130 -83 28 -225 39 -311 23z m242 -271 c-16 -18 -115 -130 -218 -248
-248 -284 -264 -301 -275 -295 -15 9 -41 98 -47 160 -10 103 37 237 104 299
15 14 32 22 41 18 8 -3 13 -1 9 4 -9 15 271 19 288 4 17 -14 38 -3 31 17 -3 8
-2 11 4 8 5 -3 21 10 37 30 15 19 35 35 42 35 10 0 4 -12 -16 -32z"/>
<path d="M15744 4010 c-198 -52 -344 -182 -405 -361 -44 -130 -20 -319 56
-438 197 -313 663 -369 931 -113 147 141 204 352 146 537 -12 39 -29 81 -37
95 -14 24 -14 23 -15 -31 0 -30 -7 -77 -16 -103 -22 -64 -101 -148 -172 -183
-52 -26 -67 -28 -167 -28 -101 0 -115 2 -169 29 -205 101 -258 336 -110 490
43 46 150 106 187 106 9 0 17 5 17 10 0 17 -169 10 -246 -10z"/>
<path d="M5687 3725 c-89 -18 -218 -82 -284 -140 -155 -137 -217 -356 -153
-545 72 -216 247 -357 484 -392 210 -30 434 59 557 222 83 109 114 214 107
361 -3 81 -9 104 -38 169 l-35 75 -6 -75 c-3 -41 -13 -92 -23 -112 -31 -65
-93 -125 -164 -160 -62 -31 -74 -33 -167 -33 -91 0 -106 3 -165 31 -146 70
-225 214 -191 351 26 103 128 206 234 235 25 6 44 15 41 20 -8 12 -120 8 -197
-7z"/>
<path d="M18970 630 c0 -121 18 -135 22 -17 l3 82 28 -83 c17 -48 34 -81 40
-79 7 2 24 37 39 78 l27 74 0 -77 c1 -62 4 -78 16 -78 12 0 15 18 15 100 0 92
-2 100 -19 100 -14 0 -24 -13 -37 -52 -40 -122 -38 -121 -69 -29 -21 64 -31
81 -46 81 -17 0 -19 -8 -19 -100z"/>
</g>
</svg>
